<mxfile host="app.diagrams.net" modified="2023-06-21T10:34:07.701Z" agent="Mozilla/5.0 (Macintosh; Intel Mac OS X 10_15_7) AppleWebKit/537.36 (KHTML, like Gecko) Chrome/114.0.0.0 Safari/537.36" version="21.5.0" etag="e1vU7_HO62-ioWCaQ6xi" type="github">
  <diagram name="Page-1" id="1s_lqxeWCei-KYkDH1WB">
    <mxGraphModel>
      <root>
        <mxCell id="0" />
        <mxCell id="1" parent="0" />
      </root>
    </mxGraphModel>
  </diagram>
</mxfile>
